<?xml version="1.0" encoding="UTF-8"?>
<svg version="1.1" xmlns="http://www.w3.org/2000/svg" width="1200" height="1200">
<path d="M0 0 C396 0 792 0 1200 0 C1200 396 1200 792 1200 1200 C804 1200 408 1200 0 1200 C0 804 0 408 0 0 Z " fill="#FEFEFE" transform="translate(0,0)"/>
<path d="M0 0 C49.5 0 99 0 150 0 C150 24.75 150 49.5 150 75 C174.75 75 199.5 75 225 75 C225 99.75 225 124.5 225 150 C249.75 150 274.5 150 300 150 C300 174.75 300 199.5 300 225 C324.75 225 349.5 225 375 225 C375 249.75 375 274.5 375 300 C424.5 300 474 300 525 300 C525 275.25 525 250.5 525 225 C549.75 225 574.5 225 600 225 C600 200.25 600 175.5 600 150 C624.75 150 649.5 150 675 150 C675 125.25 675 100.5 675 75 C699.75 75 724.5 75 750 75 C750 50.25 750 25.5 750 0 C799.5 0 849 0 900 0 C900 49.5 900 99 900 150 C875.25 150 850.5 150 825 150 C825 174.75 825 199.5 825 225 C800.25 225 775.5 225 750 225 C750 249.75 750 274.5 750 300 C725.25 300 700.5 300 675 300 C675 324.75 675 349.5 675 375 C650.25 375 625.5 375 600 375 C600 424.5 600 474 600 525 C624.75 525 649.5 525 675 525 C675 549.75 675 574.5 675 600 C724.5 600 774 600 825 600 C825 649.5 825 699 825 750 C849.75 750 874.5 750 900 750 C900 799.5 900 849 900 900 C850.5 900 801 900 750 900 C750 875.25 750 850.5 750 825 C700.5 825 651 825 600 825 C600 775.5 600 726 600 675 C575.25 675 550.5 675 525 675 C525 650.25 525 625.5 525 600 C475.5 600 426 600 375 600 C375 624.75 375 649.5 375 675 C350.25 675 325.5 675 300 675 C300 724.5 300 774 300 825 C250.5 825 201 825 150 825 C150 849.75 150 874.5 150 900 C100.5 900 51 900 0 900 C0 850.5 0 801 0 750 C24.75 750 49.5 750 75 750 C75 700.5 75 651 75 600 C124.5 600 174 600 225 600 C225 575.25 225 550.5 225 525 C249.75 525 274.5 525 300 525 C300 475.5 300 426 300 375 C275.25 375 250.5 375 225 375 C225 350.25 225 325.5 225 300 C200.25 300 175.5 300 150 300 C150 275.25 150 250.5 150 225 C125.25 225 100.5 225 75 225 C75 200.25 75 175.5 75 150 C50.25 150 25.5 150 0 150 C0 100.5 0 51 0 0 Z " fill="#B5B4B4" transform="translate(150,150)"/>
<path d="M0 0 C49.5 0 99 0 150 0 C150 24.75 150 49.5 150 75 C174.75 75 199.5 75 225 75 C225 99.75 225 124.5 225 150 C249.75 150 274.5 150 300 150 C300 174.75 300 199.5 300 225 C324.75 225 349.5 225 375 225 C375 249.75 375 274.5 375 300 C399.75 300 424.5 300 450 300 C450 324.75 450 349.5 450 375 C425.25 375 400.5 375 375 375 C375 399.75 375 424.5 375 450 C350.25 450 325.5 450 300 450 C300 425.25 300 400.5 300 375 C275.25 375 250.5 375 225 375 C225 350.25 225 325.5 225 300 C200.25 300 175.5 300 150 300 C150 275.25 150 250.5 150 225 C125.25 225 100.5 225 75 225 C75 200.25 75 175.5 75 150 C50.25 150 25.5 150 0 150 C0 100.5 0 51 0 0 Z " fill="#6F6C66" transform="translate(150,150)"/>
<path d="M0 0 C24.75 0 49.5 0 75 0 C75 49.5 75 99 75 150 C99.75 150 124.5 150 150 150 C150 199.5 150 249 150 300 C100.5 300 51 300 0 300 C0 275.25 0 250.5 0 225 C-49.5 225 -99 225 -150 225 C-150 200.25 -150 175.5 -150 150 C-125.25 150 -100.5 150 -75 150 C-75 125.25 -75 100.5 -75 75 C-50.25 75 -25.5 75 0 75 C0 50.25 0 25.5 0 0 Z " fill="#F08F06" transform="translate(900,750)"/>
<path d="M0 0 C24.75 0 49.5 0 75 0 C75.33 24.42 75.66 48.84 76 74 C99.97930762 74.28941192 99.97930762 74.28941192 123.95874023 74.56811523 C128.5880127 74.6270752 128.5880127 74.6270752 130.75257874 74.65589905 C132.27001286 74.67516755 133.78747258 74.69247819 135.3049469 74.70826721 C137.59848252 74.7325062 139.89186112 74.76288398 142.18530273 74.79467773 C144.12722755 74.81799416 144.12722755 74.81799416 146.10838318 74.84178162 C149 75 149 75 150 76 C150.1241622 78.26920225 150.17803748 80.5422645 150.20532227 82.81469727 C150.21522186 83.52685394 150.22512146 84.23901062 150.23532104 84.9727478 C150.26702212 87.33726628 150.29172724 89.70180489 150.31640625 92.06640625 C150.33696836 93.70166052 150.35796463 95.33690938 150.37937927 96.97215271 C150.43467672 101.28428786 150.48405201 105.59647158 150.53222656 109.90869141 C150.58238572 114.30570824 150.63810087 118.7026542 150.69335938 123.09960938 C150.80103473 131.73301307 150.90245871 140.3664759 151 149 C151.91232895 149.01030746 152.8246579 149.02061493 153.76463318 149.03123474 C162.34390004 149.12903261 170.92309507 149.23152128 179.50224209 149.33933926 C183.913334 149.39460832 188.32443249 149.44803454 192.7355957 149.49731445 C196.98906987 149.54489945 201.24246089 149.59723986 205.49583626 149.65294075 C207.12219243 149.67339098 208.74857142 149.69209956 210.37496758 149.70907402 C212.64516363 149.73305927 214.91520113 149.76312135 217.18530273 149.79467773 C218.47991928 149.81022202 219.77453583 149.8257663 221.10838318 149.84178162 C224 150 224 150 225 151 C225 175.42 225 199.84 225 225 C175.5 225 126 225 75 225 C75 249.75 75 274.5 75 300 C25.5 300 -24 300 -75 300 C-75 250.5 -75 201 -75 150 C-50.25 150 -25.5 150 0 150 C0 100.5 0 51 0 0 Z " fill="#F08F06" transform="translate(225,750)"/>
<path d="M0 0 C24.75 0 49.5 0 75 0 C75 24.75 75 49.5 75 75 C99.75 75 124.5 75 150 75 C150 99.75 150 124.5 150 150 C174.75 150 199.5 150 225 150 C225 174.75 225 199.5 225 225 C200.25 225 175.5 225 150 225 C150 249.75 150 274.5 150 300 C125.25 300 100.5 300 75 300 C75 275.25 75 250.5 75 225 C50.25 225 25.5 225 0 225 C0 200.25 0 175.5 0 150 C-24.75 150 -49.5 150 -75 150 C-75 125.25 -75 100.5 -75 75 C-50.25 75 -25.5 75 0 75 C0 50.25 0 25.5 0 0 Z " fill="#706D65" transform="translate(675,600)"/>
<path d="M0 0 C0 24.75 0 49.5 0 75 C-24.42 75 -48.84 75 -74 75 C-74 50.58 -74 26.16 -74 1 C-61.975625 0.835 -49.95125 0.67 -37.5625 0.5 C-33.76049072 0.44779297 -29.95848145 0.39558594 -26.04125977 0.34179688 C-21.4119873 0.27832031 -21.4119873 0.27832031 -19.24742126 0.24865723 C-17.72996486 0.22784907 -16.21250884 0.20701371 -14.6950531 0.18615723 C-12.40160202 0.15464038 -10.10814979 0.1232088 -7.81469727 0.09179688 C-5.87277245 0.06514954 -5.87277245 0.06514954 -3.89161682 0.03796387 C-1 0 -1 0 0 0 Z " fill="#FBC001" transform="translate(900,825)"/>
<path d="M0 0 C12.024375 -0.020625 24.04875 -0.04125 36.4375 -0.0625 C40.23950928 -0.071604 44.04151855 -0.08070801 47.95874023 -0.09008789 C52.5880127 -0.09460449 52.5880127 -0.09460449 54.75257874 -0.09544373 C56.27003777 -0.09698311 57.78749555 -0.10050792 59.3049469 -0.10557556 C61.59842059 -0.11285438 63.89181929 -0.11390737 66.18530273 -0.11352539 C68.12722755 -0.11685631 68.12722755 -0.11685631 70.10838318 -0.12025452 C73 0 73 0 74 1 C74.09439978 3.26991887 74.11742226 5.54281967 74.11352539 7.81469727 C74.11364593 8.53840735 74.11376646 9.26211744 74.11389065 10.00775814 C74.11314163 12.36067163 74.10551393 14.71350685 74.09765625 17.06640625 C74.0961868 18.51493288 74.09516611 19.96346004 74.09460449 21.4119873 C74.08935201 26.79549961 74.07539092 32.17900057 74.0625 37.5625 C74.041875 49.586875 74.02125 61.61125 74 74 C49.58 74 25.16 74 0 74 C0 49.58 0 25.16 0 0 Z " fill="#FBC101" transform="translate(300,826)"/>
<path d="M0 0 C24.09 0 48.18 0 73 0 C73 24.42 73 48.84 73 74 C48.91 74 24.82 74 0 74 C0 49.58 0 25.16 0 0 Z " fill="#FCC101" transform="translate(226,751)"/>
<path d="M0 0 C24.09 0 48.18 0 73 0 C73 24.42 73 48.84 73 74 C48.91 74 24.82 74 0 74 C0 49.58 0 25.16 0 0 Z " fill="#FBC102" transform="translate(901,751)"/>
<path d="M0 0 C12.024375 -0.020625 24.04875 -0.04125 36.4375 -0.0625 C40.23950928 -0.071604 44.04151855 -0.08070801 47.95874023 -0.09008789 C52.5880127 -0.09460449 52.5880127 -0.09460449 54.75257874 -0.09544373 C56.27003777 -0.09698311 57.78749555 -0.10050792 59.3049469 -0.10557556 C61.59842059 -0.11285438 63.89181929 -0.11390737 66.18530273 -0.11352539 C68.12722755 -0.11685631 68.12722755 -0.11685631 70.10838318 -0.12025452 C73 0 73 0 74 1 C74.09436529 3.23929886 74.11742327 5.4816175 74.11352539 7.72290039 C74.11364593 8.43669829 74.11376646 9.1504962 74.11389065 9.88592434 C74.11314165 12.20653287 74.10551405 14.52706201 74.09765625 16.84765625 C74.09618679 18.2763261 74.0951661 19.70499649 74.09460449 21.13366699 C74.08935208 26.44328618 74.07539099 31.75289386 74.0625 37.0625 C74.041875 48.921875 74.02125 60.78125 74 73 C49.58 73 25.16 73 0 73 C0 48.91 0 24.82 0 0 Z " fill="#FBC101" transform="translate(375,901)"/>
<path d="M0 0 C24.09 0 48.18 0 73 0 C73 24.09 73 48.18 73 73 C48.58 73 24.16 73 -1 73 C-1.020625 61.32625 -1.04125 49.6525 -1.0625 37.625 C-1.071604 33.93650879 -1.08070801 30.24801758 -1.09008789 26.44775391 C-1.09460449 21.94995117 -1.09460449 21.94995117 -1.09544373 19.84555054 C-1.09698114 18.37313536 -1.10050194 16.90072145 -1.10557556 15.42831421 C-1.11286996 13.20039679 -1.11390684 10.97255643 -1.11352539 8.74462891 C-1.115746 7.48776276 -1.11796661 6.23089661 -1.12025452 4.9359436 C-1 2 -1 2 0 0 Z " fill="#FBC003" transform="translate(752,901)"/>
<path d="M0 0 C24.75 0 49.5 0 75 0 C75 49.5 75 99 75 150 C99.75 150 124.5 150 150 150 C150 199.5 150 249 150 300 C100.5 300 51 300 0 300 C0 275.25 0 250.5 0 225 C-49.5 225 -99 225 -150 225 C-150 200.25 -150 175.5 -150 150 C-125.25 150 -100.5 150 -75 150 C-75 125.25 -75 100.5 -75 75 C-50.58 75 -26.16 75 -1 75 C-1 75.33 -1 75.66 -1 76 C-25.09 76 -49.18 76 -74 76 C-74 100.75 -74 125.5 -74 151 C-98.42 151 -122.84 151 -148 151 C-148.33 175.09 -148.66 199.18 -149 224 C-138.25566406 223.84402344 -127.51132812 223.68804688 -116.44140625 223.52734375 C-109.65560618 223.43108424 -102.86980411 223.33507948 -96.08398438 223.24023438 C-85.30098064 223.08947298 -74.5179993 222.93763842 -63.73510742 222.77905273 C-55.88345522 222.66358203 -48.03176217 222.55163551 -40.17999882 222.44397742 C-36.01993027 222.38681275 -31.85990441 222.32784518 -27.69992256 222.26466179 C-23.78897418 222.20531639 -19.87798902 222.15066289 -15.96692276 222.09969521 C-14.5273038 222.08009136 -13.08770753 222.05873499 -11.64814186 222.03554535 C-9.6911202 222.00427549 -7.73399384 221.97977096 -5.77687073 221.95567322 C-4.67901528 221.94000274 -3.58115984 221.92433226 -2.45003605 221.90818691 C0 222 0 222 1 223 C1.09494903 225.37305096 1.12558011 227.71674766 1.11352539 230.09008789 C1.11364593 230.84353454 1.11376646 231.59698118 1.11389065 232.37325954 C1.11314157 234.82308801 1.10551361 237.27284131 1.09765625 239.72265625 C1.09618681 241.23075321 1.09516611 242.73885067 1.09460449 244.24694824 C1.0893518 249.85213992 1.07539071 255.45732069 1.0625 261.0625 C1.041875 273.581875 1.02125 286.10125 1 299 C49.84 299 98.68 299 149 299 C149 250.16 149 201.32 149 151 C124.4074598 151.03960308 124.4074598 151.03960308 99.81494141 151.09008789 C95.06323242 151.09460449 95.06323242 151.09460449 92.84017944 151.09544373 C91.28443109 151.09698134 89.72868395 151.10050256 88.17294312 151.10557556 C85.81921308 151.11286833 83.465556 151.1139069 81.11181641 151.11352539 C80.06866996 151.11892255 80.06866996 151.11892255 79.00444984 151.12442875 C74.22805267 151.11402634 74.22805267 151.11402634 72 150 C72.66 100.83 73.32 51.66 74 1 C49.91 1 25.82 1 1 1 C1 25.42 1 49.84 1 75 C0.67 75 0.34 75 0 75 C0 50.25 0 25.5 0 0 Z " fill="#DAA637" transform="translate(900,750)"/>
<path d="M0 0 C24.75 0 49.5 0 75 0 C75.33 24.42 75.66 48.84 76 74 C99.97930762 74.28941192 99.97930762 74.28941192 123.95874023 74.56811523 C128.5880127 74.6270752 128.5880127 74.6270752 130.75257874 74.65589905 C132.27001286 74.67516755 133.78747258 74.69247819 135.3049469 74.70826721 C137.59848252 74.7325062 139.89186112 74.76288398 142.18530273 74.79467773 C144.12722755 74.81799416 144.12722755 74.81799416 146.10838318 74.84178162 C149 75 149 75 150 76 C150.1241622 78.26920225 150.17803748 80.5422645 150.20532227 82.81469727 C150.21522186 83.52685394 150.22512146 84.23901062 150.23532104 84.9727478 C150.26702212 87.33726628 150.29172724 89.70180489 150.31640625 92.06640625 C150.33696836 93.70166052 150.35796463 95.33690938 150.37937927 96.97215271 C150.43467672 101.28428786 150.48405201 105.59647158 150.53222656 109.90869141 C150.58238572 114.30570824 150.63810087 118.7026542 150.69335938 123.09960938 C150.80103473 131.73301307 150.90245871 140.3664759 151 149 C151.91232895 149.01030746 152.8246579 149.02061493 153.76463318 149.03123474 C162.34390004 149.12903261 170.92309507 149.23152128 179.50224209 149.33933926 C183.913334 149.39460832 188.32443249 149.44803454 192.7355957 149.49731445 C196.98906987 149.54489945 201.24246089 149.59723986 205.49583626 149.65294075 C207.12219243 149.67339098 208.74857142 149.69209956 210.37496758 149.70907402 C212.64516363 149.73305927 214.91520113 149.76312135 217.18530273 149.79467773 C218.47991928 149.81022202 219.77453583 149.8257663 221.10838318 149.84178162 C224 150 224 150 225 151 C225 175.42 225 199.84 225 225 C175.5 225 126 225 75 225 C75 249.75 75 274.5 75 300 C25.5 300 -24 300 -75 300 C-75 250.5 -75 201 -75 150 C-50.25 150 -25.5 150 0 150 C0 100.5 0 51 0 0 Z M1 1 C0.94020553 27.41600694 0.94020553 27.41600694 0.9375 53.83203125 C0.93917679 55.10118346 0.93917679 55.10118346 0.94088745 56.39597511 C0.97038259 75.06945036 1.14820539 93.74018949 1.40571976 112.41181564 C1.43747515 114.74817155 1.46745406 117.08454465 1.49703979 119.42092896 C1.54406024 123.09405397 1.59627496 126.76706817 1.65287781 130.44005775 C1.68265306 132.42176702 1.70851682 134.40353385 1.73425293 136.38529968 C1.76416321 138.16249138 1.76416321 138.16249138 1.79467773 139.97558594 C1.81799416 141.51276276 1.81799416 141.51276276 1.84178162 143.08099365 C2.00623834 146.11509262 2.44561154 149.0145295 3 152 C1.35 151.67 -0.3 151.34 -2 151 C-25.76 151 -49.52 151 -74 151 C-74 199.84 -74 248.68 -74 299 C-25.16 299 23.68 299 74 299 C74.33 274.58 74.66 250.16 75 225 C124.17 224.67 173.34 224.34 224 224 C224 200.24 224 176.48 224 152 C222.09659885 150.09659885 218.71154214 150.82500994 216.18530273 150.79467773 C215.47314606 150.78477814 214.76098938 150.77487854 214.0272522 150.76467896 C211.66273372 150.73297788 209.29819511 150.70827276 206.93359375 150.68359375 C205.29833948 150.66303164 203.66309062 150.64203537 202.02784729 150.62062073 C197.71571214 150.56532328 193.40352842 150.51594799 189.09130859 150.46777344 C184.69429176 150.41761428 180.2973458 150.36189913 175.90039062 150.30664062 C167.26698693 150.19896527 158.6335241 150.09754129 150 150 C149.98969254 149.08767105 149.97938507 148.1753421 149.96876526 147.23536682 C149.87096739 138.65609996 149.76847872 130.07690493 149.66066074 121.49775791 C149.60539168 117.086666 149.55196546 112.67556751 149.50268555 108.2644043 C149.45510055 104.01093013 149.40276014 99.75753911 149.34705925 95.50416374 C149.32660902 93.87780757 149.30790044 92.25142858 149.29092598 90.62503242 C149.26694073 88.35483637 149.23687865 86.08479887 149.20532227 83.81469727 C149.18977798 82.52008072 149.1742337 81.22546417 149.15821838 79.89161682 C149.32841258 77.10593983 149.32841258 77.10593983 148 76 C145.73079775 75.8758378 143.4577355 75.82196252 141.18530273 75.79467773 C140.0997376 75.77962865 140.0997376 75.77962865 138.99224186 75.76427555 C136.63939219 75.73278347 134.28652574 75.70807554 131.93359375 75.68359375 C130.485061 75.66520017 129.0365338 75.64636403 127.5880127 75.6270752 C122.20457422 75.55850992 116.82102914 75.49853257 111.4375 75.4375 C99.413125 75.293125 87.38875 75.14875 75 75 C74.67 50.58 74.34 26.16 74 1 C49.91 1 25.82 1 1 1 Z " fill="#DFBA42" transform="translate(225,750)"/>
<path d="M0 0 C12.024375 -0.020625 24.04875 -0.04125 36.4375 -0.0625 C40.23950928 -0.071604 44.04151855 -0.08070801 47.95874023 -0.09008789 C52.5880127 -0.09460449 52.5880127 -0.09460449 54.75257874 -0.09544373 C56.27003777 -0.09698311 57.78749555 -0.10050792 59.3049469 -0.10557556 C61.59842059 -0.11285438 63.89181929 -0.11390737 66.18530273 -0.11352539 C68.12722755 -0.11685631 68.12722755 -0.11685631 70.10838318 -0.12025452 C73 0 73 0 74 1 C74.09439978 3.26991887 74.11742226 5.54281967 74.11352539 7.81469727 C74.11367142 8.52685394 74.11381744 9.23901062 74.1139679 9.9727478 C74.1132687 12.33733112 74.10547606 14.70183661 74.09765625 17.06640625 C74.09579209 18.70165463 74.09436818 20.33690357 74.09336853 21.97215271 C74.08954318 26.28434785 74.07971275 30.59650952 74.06866455 34.90869141 C74.0584508 39.30565946 74.05387099 43.70263289 74.04882812 48.09960938 C74.03809049 56.73308831 74.02101387 65.36654 74 74 C73.67 72.68 73.34 71.36 73 70 C72.01 70 71.02 70 70 70 C70 49.21 70 28.42 70 7 C69.34 7 68.68 7 68 7 C67.505 6.01 67.505 6.01 67 5 C46.54 4.67 26.08 4.34 5 4 C5 3.34 5 2.68 5 2 C3.68 1.67 2.36 1.34 1 1 C1 2.32 1 3.64 1 5 C1.66 5.33 2.32 5.66 3 6 C2.67 27.78 2.34 49.56 2 72 C35.66 72.495 35.66 72.495 70 73 C70 73.33 70 73.66 70 74 C46.9 74 23.8 74 0 74 C0 49.58 0 25.16 0 0 Z " fill="#FCBD10" transform="translate(300,826)"/>
<path d="M0 0 C0.66 0 1.32 0 2 0 C2.33 25.41 2.66 50.82 3 77 C1.68 77.33 0.36 77.66 -1 78 C-1.33 77.67 -1.66 77.34 -2 77 C-25.76 76.67 -49.52 76.34 -74 76 C-74 124.84 -74 173.68 -74 224 C-25.16 224 23.68 224 74 224 C74 199.58 74 175.16 74 150 C74.33 150 74.66 150 75 150 C75 174.75 75 199.5 75 225 C25.5 225 -24 225 -75 225 C-75 175.5 -75 126 -75 75 C-50.25 75 -25.5 75 0 75 C0 50.25 0 25.5 0 0 Z " fill="#D49230" transform="translate(225,825)"/>
<path d="M0 0 C24.09 0 48.18 0 73 0 C73 21.45 73 42.9 73 65 C72.34 65 71.68 65 71 65 C71 43.88 71 22.76 71 1 C59.31829322 1.14880377 59.31829322 1.14880377 47.63671875 1.30664062 C42.87421798 1.37299696 38.11171901 1.43828205 33.34912109 1.49731445 C29.51060359 1.54495877 25.67217659 1.59730158 21.83376694 1.65294075 C20.36733114 1.67336401 18.90087053 1.69207715 17.43439102 1.70907402 C15.38471735 1.73311876 13.33521518 1.763173 11.28564453 1.79467773 C10.11760284 1.81022202 8.94956116 1.8257663 7.74612427 1.84178162 C5.03798594 1.81641289 5.03798594 1.81641289 3 3 C2.98969254 3.74866837 2.97938507 4.49733673 2.96876526 5.26869202 C2.87054167 12.3450493 2.76799337 19.42132786 2.66066074 26.49755192 C2.60563864 30.13497631 2.55225341 33.77240898 2.50268555 37.40991211 C2.45473439 40.92425987 2.40238353 44.43851773 2.34705925 47.95275688 C2.31694284 49.93729756 2.29131188 51.92190467 2.26576233 53.9065094 C2.17126943 59.68989969 2.0427349 65.30392147 1 71 C5.53140653 71.93380961 5.53140653 71.93380961 10 71 C10 71.66 10 72.32 10 73 C10.56164856 72.83923477 11.12329712 72.67846954 11.70196533 72.51283264 C14.11833597 71.97359198 16.29454564 71.84123167 18.76855469 71.79467773 C20.17956451 71.7647599 20.17956451 71.7647599 21.61907959 71.73423767 C22.62650208 71.71752518 23.63392456 71.70081268 24.671875 71.68359375 C25.70942932 71.66281265 26.74698364 71.64203156 27.815979 71.62062073 C31.12725258 71.55528592 34.43860482 71.49631483 37.75 71.4375 C39.99610185 71.39429951 42.24219578 71.35068473 44.48828125 71.30664062 C49.99210457 71.19962097 55.49600598 71.09782478 61 71 C61.495 69.515 61.495 69.515 62 68 C64.0625 67.3125 64.0625 67.3125 66 67 C66 68.32 66 69.64 66 71 C65.34 71 64.68 71 64 71 C64 71.99 64 72.98 64 74 C42.88 74 21.76 74 0 74 C0 49.58 0 25.16 0 0 Z " fill="#F6C114" transform="translate(226,751)"/>
<path d="M0 0 C0 24.75 0 49.5 0 75 C-24.42 75 -48.84 75 -74 75 C-74 50.58 -74 26.16 -74 1 C-61.975625 0.835 -49.95125 0.67 -37.5625 0.5 C-33.76049072 0.44779297 -29.95848145 0.39558594 -26.04125977 0.34179688 C-21.4119873 0.27832031 -21.4119873 0.27832031 -19.24742126 0.24865723 C-17.72996486 0.22784907 -16.21250884 0.20701371 -14.6950531 0.18615723 C-12.40160202 0.15464038 -10.10814979 0.1232088 -7.81469727 0.09179688 C-5.87277245 0.06514954 -5.87277245 0.06514954 -3.89161682 0.03796387 C-1 0 -1 0 0 0 Z M-73 2 C-73 25.1 -73 48.2 -73 72 C-68.85833533 74.07083234 -67.11831631 74.24855531 -62.61083984 74.24291992 C-61.31624847 74.24599655 -60.0216571 74.24907318 -58.68783569 74.25224304 C-57.27886781 74.24534612 -55.86990171 74.23807921 -54.4609375 74.23046875 C-53.01413006 74.22927623 -51.56732183 74.22882394 -50.12051392 74.2290802 C-47.0926629 74.22751791 -44.06493055 74.21924625 -41.03710938 74.20581055 C-37.15199288 74.18879068 -33.26700633 74.18499722 -29.38185692 74.18575573 C-26.39650223 74.18548416 -23.41117606 74.18000553 -20.42583084 74.17275429 C-18.99286744 74.1695683 -17.5599008 74.16760037 -16.12693405 74.16686058 C-14.12806794 74.16469803 -12.12921387 74.15516234 -10.13037109 74.14526367 C-8.99215912 74.14145187 -7.85394714 74.13764008 -6.6812439 74.13371277 C-4.02797752 74.18153421 -4.02797752 74.18153421 -2 73 C-0.87340481 69.62021442 -0.87979017 67.07183864 -0.88647461 63.5090332 C-0.88632858 62.8551059 -0.88618256 62.20117859 -0.8860321 61.5274353 C-0.88672812 59.36851674 -0.89450592 57.20968472 -0.90234375 55.05078125 C-0.90420904 53.55291287 -0.90563242 52.05504389 -0.90663147 50.55717468 C-0.91044793 46.61654981 -0.9202708 42.67596186 -0.93133545 38.73535156 C-0.94156828 34.71354675 -0.9461331 30.69173596 -0.95117188 26.66992188 C-0.96189384 18.77993099 -0.97895983 10.88997009 -1 3 C-4.43038294 1.85653902 -7.0563175 1.879884 -10.67456055 1.88647461 C-11.35886296 1.88635407 -12.04316538 1.88623354 -12.74820423 1.88610935 C-14.96107558 1.88685514 -17.17386248 1.89446817 -19.38671875 1.90234375 C-20.75378377 1.9038142 -22.12084935 1.90483428 -23.48791504 1.90539551 C-28.55445195 1.91063641 -33.62097681 1.92459762 -38.6875 1.9375 C-55.6721875 1.9684375 -55.6721875 1.9684375 -73 2 Z " fill="#F3C019" transform="translate(900,825)"/>
<path d="M0 0 C24.75 0 49.5 0 75 0 C76.45441274 2.90882548 76.15698874 5.47962003 76.18945312 8.72875977 C76.20189308 9.76554367 76.20189308 9.76554367 76.21458435 10.82327271 C76.23199306 12.32542688 76.24715764 13.82760834 76.26036072 15.32980537 C76.28135841 17.70366194 76.30838198 20.07738093 76.33703613 22.45115662 C76.40693024 28.34570506 76.46634342 34.24035103 76.52606201 40.13500977 C76.57691115 45.11609169 76.63170561 50.09709905 76.69187927 55.07807732 C76.71854079 57.42300607 76.73930086 59.76794145 76.7598877 62.1129303 C76.77648333 63.54216853 76.79335451 64.97140359 76.81054688 66.40063477 C76.82307495 67.65368912 76.83560303 68.90674347 76.84851074 70.19776917 C76.68199525 72.9046303 76.68199525 72.9046303 78 74 C80.20794411 74.12406815 82.41984486 74.17802278 84.63110352 74.20532227 C85.32375305 74.21522186 86.01640259 74.22512146 86.7300415 74.23532104 C89.02962779 74.2670203 91.32923477 74.29172651 93.62890625 74.31640625 C95.21932018 74.33696852 96.80972855 74.35796479 98.40013123 74.37937927 C102.59389763 74.43467509 106.78771395 74.4840511 110.98156738 74.53222656 C115.25793928 74.58238691 119.53423834 74.63810144 123.81054688 74.69335938 C132.20696973 74.80103274 140.60345338 74.90245716 149 75 C148.67 75.66 148.34 76.32 148 77 C138.49917755 76.89266 128.99843652 76.78006002 119.49775791 76.66066074 C115.086666 76.60539168 110.67556751 76.55196546 106.2644043 76.50268555 C102.01093013 76.45510055 97.75753911 76.40276014 93.50416374 76.34705925 C91.87780757 76.32660902 90.25142858 76.30790044 88.62503242 76.29092598 C86.35483637 76.26694073 84.08479887 76.23687865 81.81469727 76.20532227 C79.87277245 76.18200584 79.87277245 76.18200584 77.89161682 76.15821838 C75 76 75 76 74 75 C73.8758378 72.73079775 73.82196252 70.4577355 73.79467773 68.18530273 C73.78464501 67.46159265 73.77461229 66.73788256 73.76427555 65.99224186 C73.73278347 63.63939219 73.70807554 61.28652574 73.68359375 58.93359375 C73.66520017 57.485061 73.64636403 56.0365338 73.6270752 54.5880127 C73.55850992 49.20457422 73.49853257 43.82102914 73.4375 38.4375 C73.293125 26.413125 73.14875 14.38875 73 2 C48.91 1.67 24.82 1.34 0 1 C0 0.67 0 0.34 0 0 Z " fill="#C5B77B" transform="translate(301,824)"/>
<path d="M0 0 C0.33 0 0.66 0 1 0 C1 22.44 1 44.88 1 68 C-23.42 68 -47.84 68 -73 68 C-73 67.67 -73 67.34 -73 67 C-65.09522388 65.91059595 -57.31131603 65.87131304 -49.33984375 65.90234375 C-48.11044067 65.90335083 -46.8810376 65.90435791 -45.61437988 65.90539551 C-41.05541033 65.9105974 -36.49645415 65.92455851 -31.9375 65.9375 C-21.728125 65.958125 -11.51875 65.97875 -1 66 C-0.67 44.22 -0.34 22.44 0 0 Z " fill="#F2C114" transform="translate(448,906)"/>
<path d="M0 0 C24.09 0 48.18 0 73 0 C73 0.33 73 0.66 73 1 C51.88 1.33 30.76 1.66 9 2 C9.33 2.99 9.66 3.98 10 5 C8.3125 8.125 8.3125 8.125 6 11 C4.68 11.33 3.36 11.66 2 12 C1.67 27.84 1.34 43.68 1 60 C0.67 60 0.34 60 0 60 C0 40.2 0 20.4 0 0 Z " fill="#FDBC0E" transform="translate(375,901)"/>
<path d="M0 0 C1.65 0 3.3 0 5 0 C5 24.42 5 48.84 5 74 C-12.82 74 -30.64 74 -49 74 C-49 73.34 -49 72.68 -49 72 C-43.36259569 71.83088937 -37.72503133 71.67050768 -32.0871582 71.51782227 C-30.17368066 71.46481779 -28.2602649 71.40952754 -26.34692383 71.35180664 C-23.57907435 71.26872058 -20.81109873 71.19416277 -18.04296875 71.12109375 C-17.20291794 71.09405869 -16.36286713 71.06702362 -15.49736023 71.03916931 C-9.16476765 70.88397606 -3.41568348 71.41675605 3 72 C3.33 48.57 3.66 25.14 4 1 C2.68 0.67 1.36 0.34 0 0 Z " fill="#F7BF18" transform="translate(969,751)"/>
<path d="M0 0 C0.33 0 0.66 0 1 0 C1 24.09 1 48.18 1 73 C-22.76 73 -46.52 73 -71 73 C-71 72.34 -71 71.68 -71 71 C-47.9 71 -24.8 71 -1 71 C-0.67 47.57 -0.34 24.14 0 0 Z " fill="#FEBB13" transform="translate(899,827)"/>
<path d="M0 0 C0 1.32 0 2.64 0 4 C-0.66 4 -1.32 4 -2 4 C-2 4.99 -2 5.98 -2 7 C-22.79 7 -43.58 7 -65 7 C-65 6.01 -65 5.02 -65 4 C-63.6078125 4.2784375 -63.6078125 4.2784375 -62.1875 4.5625 C-58.98656229 5.24123881 -58.98656229 5.24123881 -56 4 C-56 4.66 -56 5.32 -56 6 C-55.43835144 5.83923477 -54.87670288 5.67846954 -54.29803467 5.51283264 C-51.88166403 4.97359198 -49.70545436 4.84123167 -47.23144531 4.79467773 C-46.29077209 4.77473251 -45.35009888 4.75478729 -44.38092041 4.73423767 C-42.86978668 4.70916893 -42.86978668 4.70916893 -41.328125 4.68359375 C-40.29057068 4.66281265 -39.25301636 4.64203156 -38.184021 4.62062073 C-34.87274742 4.55528592 -31.56139518 4.49631483 -28.25 4.4375 C-26.00389815 4.39429951 -23.75780422 4.35068473 -21.51171875 4.30664062 C-16.00789543 4.19962097 -10.50399402 4.09782478 -5 4 C-4.67 3.01 -4.34 2.02 -4 1 C-2 0 -2 0 0 0 Z " fill="#FDBB10" transform="translate(292,818)"/>
<path d="M0 0 C0.99 0 1.98 0 3 0 C2.67 25.08 2.34 50.16 2 76 C1.67 76 1.34 76 1 76 C1 56.2 1 36.4 1 16 C-0.32 16 -1.64 16 -3 16 C-3 14.68 -3 13.36 -3 12 C-1.68 12 -0.36 12 1 12 C0.76603516 10.95199219 0.76603516 10.95199219 0.52734375 9.8828125 C0.33269531 8.97273437 0.13804687 8.06265625 -0.0625 7.125 C-0.25972656 6.22007812 -0.45695313 5.31515625 -0.66015625 4.3828125 C-1 2 -1 2 0 0 Z " fill="#F9FEEB" transform="translate(747,896)"/>
<path d="M0 0 C1.65 0 3.3 0 5 0 C5 1.32 5 2.64 5 4 C24.47 4 43.94 4 64 4 C64 4.33 64 4.66 64 5 C43.21 5 22.42 5 1 5 C1.33 4.01 1.66 3.02 2 2 C1.34 2 0.68 2 0 2 C0 1.34 0 0.68 0 0 Z " fill="#FCFEEB" transform="translate(907,744)"/>
<path d="M0 0 C0.99 0 1.98 0 3 0 C2.67 1.32 2.34 2.64 2 4 C-19.78 4 -41.56 4 -64 4 C-63.67 3.34 -63.34 2.68 -63 2 C-42.21 2.33 -21.42 2.66 0 3 C0 2.01 0 1.02 0 0 Z " fill="#FCFEEB" transform="translate(288,745)"/>
<path d="M0 0 C0.99 0.33 1.98 0.66 3 1 C2.67 2.32 2.34 3.64 2 5 C1.34 5 0.68 5 0 5 C0 23.81 0 42.62 0 62 C-0.33 62 -0.66 62 -1 62 C-1.02312764 54.06386213 -1.04091723 46.12773824 -1.05181217 38.19157505 C-1.05704008 34.50685502 -1.06413605 30.82215797 -1.07543945 27.13745117 C-1.08627162 23.58429169 -1.09227753 20.03115437 -1.09487724 16.47797966 C-1.0967309 15.11954334 -1.10035038 13.76110829 -1.10573006 12.40268135 C-1.11294475 10.50617777 -1.11340809 8.60965207 -1.11352539 6.71313477 C-1.115746 5.63169693 -1.11796661 4.55025909 -1.12025452 3.43605042 C-1 1 -1 1 0 0 Z " fill="#FCFEEC" transform="translate(452,908)"/>
<path d="M0 0 C0.33 0.99 0.66 1.98 1 3 C1.66 3.33 2.32 3.66 3 4 C2.67 5.65 2.34 7.3 2 9 C3.65 9 5.3 9 7 9 C6.67 9.99 6.34 10.98 6 12 C3.69 12 1.38 12 -1 12 C-1.02687279 10.18757948 -1.04633715 8.37504767 -1.0625 6.5625 C-1.07410156 5.55316406 -1.08570313 4.54382813 -1.09765625 3.50390625 C-1 1 -1 1 0 0 Z " fill="#FCBC0C" transform="translate(376,961)"/>
<path d="M0 0 C2.64 0 5.28 0 8 0 C8 1.32 8 2.64 8 4 C9.32 3.67 10.64 3.34 12 3 C12 3.66 12 4.32 12 5 C9.36 5 6.72 5 4 5 C4 4.34 4 3.68 4 3 C2.02 3.99 2.02 3.99 0 5 C0 3.35 0 1.7 0 0 Z " fill="#FAFBF2" transform="translate(900,1051)"/>
<path d="M0 0 C8.57142857 -0.14285714 8.57142857 -0.14285714 12 1 C11.67 1.66 11.34 2.32 11 3 C10.34 3 9.68 3 9 3 C8.34 3.66 7.68 4.32 7 5 C7 4.34 7 3.68 7 3 C6.34 3 5.68 3 5 3 C5 2.34 5 1.68 5 1 C4.01 1 3.02 1 2 1 C2 2.32 2 3.64 2 5 C0.02 5 -1.96 5 -4 5 C-4 4.34 -4 3.68 -4 3 C-2.68 2.34 -1.36 1.68 0 1 C0 0.67 0 0.34 0 0 Z " fill="#F9FBF1" transform="translate(292,1051)"/>
<path d="M0 0 C0 0.66 0 1.32 0 2 C0.66 2.33 1.32 2.66 2 3 C1.01 4.485 1.01 4.485 0 6 C-2.625 6.1875 -2.625 6.1875 -5 6 C-5.33 5.34 -5.66 4.68 -6 4 C-4.68 4 -3.36 4 -2 4 C-5.303314 3.11064623 -8.62294375 2.53725895 -12 2 C-12 1.67 -12 1.34 -12 1 C-7.915021 0.45533613 -4.1274515 0 0 0 Z " fill="#F8F9EE" transform="translate(1054,1050)"/>
<path d="M0 0 C0.66 0 1.32 0 2 0 C2 1.98 2 3.96 2 6 C2.99 5.67 3.98 5.34 5 5 C5 6.32 5 7.64 5 9 C3.35 9 1.7 9 0 9 C0 6.03 0 3.06 0 0 Z " fill="#EC8F13" transform="translate(294,1040)"/>
<path d="M0 0 C0.99 0 1.98 0 3 0 C3.33 2.64 3.66 5.28 4 8 C2.68 8 1.36 8 0 8 C0 5.36 0 2.72 0 0 Z " fill="#FCFBEC" transform="translate(1051,900)"/>
<path d="M0 0 C0.99 0.66 1.98 1.32 3 2 C2.01 2 1.02 2 0 2 C0 2.66 0 3.32 0 4 C0.99 4.33 1.98 4.66 3 5 C0.125 5.625 0.125 5.625 -3 6 C-3.66 5.34 -4.32 4.68 -5 4 C-5 3.34 -5 2.68 -5 2 C-2.6875 0.875 -2.6875 0.875 0 0 Z " fill="#F8FBEC" transform="translate(901,744)"/>
<path d="M0 0 C0.33 0 0.66 0 1 0 C1 3.96 1 7.92 1 12 C-0.98 12 -2.96 12 -5 12 C-3.68 11.67 -2.36 11.34 -1 11 C-1.309375 9.948125 -1.309375 9.948125 -1.625 8.875 C-2.07850357 5.39813928 -1.27540277 3.22601877 0 0 Z " fill="#E99301" transform="translate(374,961)"/>
<path d="M0 0 C0.66 0 1.32 0 2 0 C2 0.66 2 1.32 2 2 C1.34 2 0.68 2 0 2 C0.34227572 4.97065509 0.34227572 4.97065509 1 8 C1.66 8.33 2.32 8.66 3 9 C1.68 10.32 0.36 11.64 -1 13 C-1.02686553 11.02090602 -1.04633375 9.04171029 -1.0625 7.0625 C-1.07410156 5.96035156 -1.08570313 4.85820313 -1.09765625 3.72265625 C-1 1 -1 1 0 0 Z " fill="#E79401" transform="translate(826,900)"/>
<path d="M0 0 C0.99 0 1.98 0 3 0 C3 2.64 3 5.28 3 8 C2.34 8 1.68 8 1 8 C0.67 5.36 0.34 2.72 0 0 Z " fill="#FCF9EE" transform="translate(146,900)"/>
</svg>
